<svg id="Layer_1" data-name="Layer 1" xmlns="http://www.w3.org/2000/svg" viewBox="0 0 74.58 96.53"><defs><style>.cls-1{fill:#f56545;stroke:#f56545;stroke-miterlimit:10;stroke-width:5px;}</style></defs><title>x</title><path class="cls-1" d="M183.8,411.06q-3.2-2.63-.94-6.2l28.2-38.54-28.2-38.73q-2.26-3.76.94-6.39a4.39,4.39,0,0,1,3.29-.66,3.89,3.89,0,0,1,2.91,1.79l26.7,36.28,26.51-36.28a4.39,4.39,0,0,1,2.91-1.79,4,4,0,0,1,3.1.66q3.57,2.44,1.32,6.39l-28.39,38.73,28.39,38.54q2.44,3.76-1.32,6.2a4,4,0,0,1-2.91.94,3.47,3.47,0,0,1-3.1-1.88L216.7,373.84,190,410.12a3.34,3.34,0,0,1-2.91,1.88A6.06,6.06,0,0,1,183.8,411.06Z" transform="translate(-179.43 -317.98)"/></svg>