<svg id="Layer_1" data-name="Layer 1" xmlns="http://www.w3.org/2000/svg" viewBox="0 0 87.26 87.26"><defs><style>.cls-1{fill:#949494;}</style></defs><title>plus</title><path class="cls-1" d="M230.69,191.22V153.87H193.35q-3.19,0-3.19-3.1t3.19-3.1h37.35V110.15q0-3,3.19-3a3,3,0,0,1,2,.88,2.78,2.78,0,0,1,1,2.12v37.52h37.52a3,3,0,0,1,2,.89,2.78,2.78,0,0,1,1,2.12,3.05,3.05,0,0,1-1,2.21,2.88,2.88,0,0,1-2,1H236.89v37.35a3.05,3.05,0,0,1-1,2.21,2.88,2.88,0,0,1-2,1Q230.69,194.4,230.69,191.22Z" transform="translate(-190.16 -107.14)"/></svg>